HIERARCHY
ROOT Hips
{
	OFFSET 0.000000 0.000000 0.000000 
	CHANNELS 6 Xposition Yposition Zposition Zrotation Yrotation Xrotation
	JOINT LeftUpLeg
	{
		OFFSET 1.363060 -1.794630 0.839290 
		CHANNELS 3 Zrotation Yrotation Xrotation
		JOINT LeftLeg
		{
			OFFSET 2.448110 -6.726130 0.000000 
			CHANNELS 3 Zrotation Yrotation Xrotation
			JOINT LeftFoot
			{
				OFFSET 2.562200 -7.039590 0.000000 
				CHANNELS 3 Zrotation Yrotation Xrotation
				JOINT LeftToeBase
				{
					OFFSET 0.157640 -0.433110 2.322550 
					CHANNELS 3 Zrotation Yrotation Xrotation
					End Site
					{
						OFFSET 0.000000 0.000000 0.000000 
					}
				}
			}
		}
	}
	JOINT RightUpLeg
	{
		OFFSET -1.305520 -1.794630 0.839290 
		CHANNELS 3 Zrotation Yrotation Xrotation
		JOINT RightLeg
		{
			OFFSET -2.542530 -6.985550 0.000000 
			CHANNELS 3 Zrotation Yrotation Xrotation
			JOINT RightFoot
			{
				OFFSET -2.568260 -7.056230 0.000000 
				CHANNELS 3 Zrotation Yrotation Xrotation
				JOINT RightToeBase
				{
					OFFSET -0.164730 -0.452590 2.363150 
					CHANNELS 3 Zrotation Yrotation Xrotation
					End Site
					{
						OFFSET 0.000000 0.000000 0.000000 
					}
				}
			}
		}
	}
	JOINT Spine
	{
		OFFSET 0.028270 2.035590 -0.193380 
		CHANNELS 3 Zrotation Yrotation Xrotation
		JOINT Spine1
		{
			OFFSET 0.056720 2.048850 -0.042750 
			CHANNELS 3 Zrotation Yrotation Xrotation
			JOINT Neck1
			{
				OFFSET -0.054170 1.746240 0.172020 
				CHANNELS 3 Zrotation Yrotation Xrotation
				JOINT Head
				{
					OFFSET 0.104070 1.761360 -0.123970 
					CHANNELS 3 Zrotation Yrotation Xrotation
					End Site
					{
						OFFSET 0.000000 0.000000 0.000000 
					}
				}
			}
			JOINT LeftArm
			{
				OFFSET 3.362410 1.200890 -0.311210 
				CHANNELS 3 Zrotation Yrotation Xrotation
				JOINT LeftForeArm
				{
					OFFSET 4.983000 -0.000000 -0.000000 
					CHANNELS 3 Zrotation Yrotation Xrotation
					JOINT LeftHand
					{
						OFFSET 3.483560 -0.000000 -0.000000 
						CHANNELS 3 Zrotation Yrotation Xrotation
						JOINT LeftHandIndex1
						{
							OFFSET 0.715260 -0.000000 -0.000000 
							CHANNELS 3 Zrotation Yrotation Xrotation
							End Site
							{
								OFFSET 0.000000 0.000000 0.000000 
							}
						}
					}
				}
			}
			JOINT RightArm
			{
				OFFSET -3.136600 1.374050 -0.404650 
				CHANNELS 3 Zrotation Yrotation Xrotation
				JOINT RightForeArm
				{
					OFFSET -5.241900 -0.000000 -0.000000 
					CHANNELS 3 Zrotation Yrotation Xrotation
					JOINT RightHand
					{
						OFFSET -3.444170 -0.000000 -0.000000 
						CHANNELS 3 Zrotation Yrotation Xrotation
						JOINT RightHandIndex1
						{
							OFFSET -0.622530 -0.000000 -0.000000 
							CHANNELS 3 Zrotation Yrotation Xrotation
							End Site
							{
								OFFSET 0.000000 0.000000 0.000000 
							}
						}
					}
				}
			}
		}
	}
}
MOTION
Frames: 6
Frame Time: 0.041667
-6.158659 18.492930 -28.946583 -138.852315 -84.378842 150.698729 2.928970 -5.843791 -12.638970 -1.165678 6.968248 17.026643 -2.440305 11.654866 13.015624 2.782000 -10.333500 -30.063700 9.391140 -0.712819 -13.176103 1.536689 -7.244353 17.638051 -2.150475 0.725228 8.113555 -2.916100 10.558000 -30.803200 0.665972 4.223283 -4.697697 0.490242 1.560762 -12.355042 8.724805 -20.481693 6.852806 19.677500 -10.582200 4.288100 -83.041866 18.033632 19.988550 18.243778 -24.866412 -5.576852 0.058330 -0.070913 -34.909628 -7.125000 0.000000 0.000000 72.658436 -8.867159 12.790401 -9.111173 18.846406 -2.590662 -0.036361 0.339952 27.010232 7.125000 0.000000 0.000000 
-6.175502 18.483955 -28.853727 -139.787707 -84.532006 151.621447 2.491468 -5.263816 -12.945854 -1.198556 7.043407 17.270492 -2.048758 10.704041 12.778862 2.799200 -10.362600 -30.159100 8.875846 -0.412903 -12.909051 1.518132 -7.169303 17.497777 -1.935625 0.098462 8.264897 -3.019500 10.726500 -31.363100 0.656478 4.208532 -4.704112 0.496484 1.560499 -12.366050 8.744612 -20.514609 6.831947 19.692900 -10.592400 4.289800 -83.106332 18.111463 20.037145 18.255105 -24.879402 -5.581952 0.054366 -0.066141 -34.890328 -7.125000 0.000000 0.000000 72.650844 -8.968661 12.548284 -9.045700 18.769039 -2.570455 -0.033164 0.337548 27.159634 7.125000 0.000000 0.000000 
-6.191236 18.474758 -28.759541 -140.860698 -84.689369 152.670762 2.035740 -4.643814 -13.270742 -1.230964 7.121958 17.526969 -1.611613 9.652216 12.563684 2.792600 -10.351500 -30.122800 8.350480 -0.096594 -12.635010 1.495446 -7.099483 17.372315 -1.708271 -0.553947 8.422142 -3.128400 10.900100 -31.943800 0.636099 4.222578 -4.709756 0.467415 1.569011 -12.391215 8.772822 -20.586142 6.791454 19.708400 -10.617500 4.278700 -83.095410 18.184552 20.161120 18.264546 -24.893730 -5.586728 0.052710 -0.063451 -34.843006 -7.125000 0.000000 0.000000 72.685014 -9.074468 12.240260 -8.984757 18.693917 -2.551310 -0.026208 0.333012 27.302875 7.125000 0.000000 0.000000 
-6.205752 18.465782 -28.664357 -142.095392 -84.851643 153.875989 1.569220 -4.005613 -13.606386 -1.262718 7.201898 17.787774 -1.141728 8.527792 12.379121 2.775800 -10.323000 -30.029000 7.819027 0.224012 -12.366840 1.468759 -7.035839 17.263519 -1.476011 -1.211973 8.591770 -3.242900 11.078300 -32.544300 0.623073 4.213023 -4.715274 0.469688 1.571788 -12.423674 8.785121 -20.639215 6.749397 19.706100 -10.628900 4.256900 -83.101689 18.242158 20.235493 18.269585 -24.902517 -5.589665 0.055505 -0.061262 -34.801265 -7.125000 0.000000 0.000000 72.684696 -9.161222 11.978030 -8.924246 18.616982 -2.531255 -0.016183 0.326589 27.451725 7.125000 0.000000 0.000000 
-6.219160 18.457361 -28.568066 -143.786824 -85.026473 155.533704 1.080865 -3.402246 -13.928544 -1.296798 7.284115 18.044429 -0.665929 7.386005 12.210819 2.756800 -10.290500 -29.922600 7.259123 0.545752 -12.107015 1.436559 -6.977263 17.172706 -1.241705 -1.870228 8.780014 -3.361600 11.258700 -33.157300 0.608526 4.199459 -4.719444 0.481910 1.575846 -12.456959 8.795023 -20.690513 6.704509 19.703100 -10.637500 4.233900 -83.093401 18.278919 20.308706 18.271478 -24.907506 -5.590849 0.059448 -0.060244 -34.738273 -7.125000 0.000000 0.000000 72.673947 -9.230928 11.730079 -8.864503 18.540093 -2.511530 -0.008087 0.321751 27.592848 7.125000 0.000000 0.000000 
-6.231459 18.449715 -28.470334 -145.901576 -85.212785 157.605257 0.579040 -2.862565 -14.223960 -1.333508 7.367511 18.291480 -0.197837 6.256125 12.064132 2.732200 -10.248500 -29.785100 6.678325 0.852935 -11.858555 1.398748 -6.924297 17.102463 -1.015713 -2.502879 8.994816 -3.476100 11.428600 -33.739300 0.600107 4.163294 -4.721881 0.532468 1.577203 -12.486333 8.799646 -20.718609 6.665641 19.703600 -10.634800 4.214100 -83.096380 18.294774 20.371322 18.271028 -24.909369 -5.590532 0.062604 -0.059650 -34.690674 -7.125000 0.000000 0.000000 72.621562 -9.276796 11.521175 -8.803670 18.463074 -2.492753 -0.008517 0.323801 27.726235 7.125000 0.000000 0.000000 
